<svg width="60" height="60" viewBox="0 0 60 60" fill="none" xmlns="http://www.w3.org/2000/svg">
<path d="M43.2958 0.193009C46.3397 0.331933 48.4439 0.779215 50.3912 1.53603C52.3394 2.29316 53.8148 3.25295 55.2811 4.71918C56.7471 6.18537 57.7068 7.66056 58.4642 9.60904C59.2209 11.5566 59.6681 13.6605 59.807 16.7043C59.9791 20.4793 60 21.8099 60 29.9999C60 38.1901 59.9791 39.5208 59.807 43.2957C59.6681 46.3395 59.2209 48.4434 58.464 50.3916C57.7067 52.3395 56.7469 53.8148 55.2811 55.2807C53.815 56.7469 52.3395 57.7068 50.3909 58.4641C48.443 59.2209 46.3393 59.6681 43.2958 59.8069C39.5217 59.9791 38.1914 60 30 60C21.8086 60 20.4783 59.9791 16.7043 59.8069C13.6607 59.6681 11.5568 59.2209 9.60856 58.4639C7.66042 57.7068 6.18498 56.7469 4.71906 55.2808C3.25293 53.8147 2.29305 52.3393 1.5358 50.391C0.779108 48.4434 0.331925 46.3395 0.19301 43.2958C0.0208824 39.5232 0 38.1937 0 29.9999C0 21.8063 0.0208824 20.4768 0.193012 16.7041C0.331925 13.6605 0.779108 11.5566 1.53591 9.60875C2.29298 7.66075 3.25284 6.1854 4.71893 4.71931C6.18498 3.2531 7.66042 2.29325 9.60863 1.53604C11.5559 0.779241 13.6602 0.331935 16.7041 0.193009C20.4769 0.0208806 21.8063 0 30 0C38.1937 0 39.5231 0.0208809 43.2958 0.193009ZM30 6.66667C21.899 6.66667 20.66 6.68613 17.008 6.85275C14.6904 6.95853 13.2988 7.25432 12.0237 7.74989C10.9349 8.17305 10.2431 8.62311 9.4331 9.43323C8.62291 10.2434 8.17283 10.9352 7.74991 12.0234C7.25425 13.2991 6.95852 14.6905 6.85275 17.008C6.68613 20.6599 6.66667 21.899 6.66667 29.9999C6.66667 38.101 6.68613 39.3401 6.85275 42.9919C6.95852 45.3095 7.25425 46.7009 7.74976 47.9762C8.17285 49.0648 8.623 49.7567 9.43324 50.5669C10.2431 51.3769 10.9349 51.827 12.0233 52.25C13.2993 52.7457 14.6905 53.0414 17.0081 53.1471C20.6615 53.3138 21.9013 53.3333 30 53.3333C38.0987 53.3333 39.3385 53.3138 42.992 53.1471C45.3094 53.0415 46.7005 52.7457 47.9763 52.2501C49.0651 51.8269 49.7569 51.3769 50.5669 50.5668C51.3769 49.7568 51.827 49.0649 52.2501 47.9766C52.7458 46.7009 53.0415 45.3095 53.1472 42.9919C53.3138 39.3377 53.3333 38.0975 53.3333 29.9999C53.3333 21.9025 53.3138 20.6623 53.1473 17.0081C53.0415 14.6905 52.7458 13.2991 52.2503 12.0239C51.827 10.9351 51.3769 10.2432 50.5669 9.4331C49.7569 8.62312 49.0651 8.17307 47.9763 7.74992C46.701 7.2543 45.3096 6.95853 42.9919 6.85275C39.34 6.68613 38.101 6.66667 30 6.66667ZM30 45.5556C21.4089 45.5556 14.4444 38.5911 14.4444 30C14.4444 21.4089 21.4089 14.4444 30 14.4444C38.5911 14.4444 45.5556 21.4089 45.5556 30C45.5556 38.5911 38.5911 45.5556 30 45.5556ZM30 38.8889C34.9092 38.8889 38.8889 34.9092 38.8889 30C38.8889 25.0908 34.9092 21.1111 30 21.1111C25.0908 21.1111 21.1111 25.0908 21.1111 30C21.1111 34.9092 25.0908 38.8889 30 38.8889ZM45.5556 17.7778C43.7146 17.7778 42.2222 16.2854 42.2222 14.4444C42.2222 12.6035 43.7146 11.1111 45.5556 11.1111C47.3965 11.1111 48.8889 12.6035 48.8889 14.4444C48.8889 16.2854 47.3965 17.7778 45.5556 17.7778Z" fill="black"/>
</svg>
