<svg width="44" height="54" viewBox="0 0 44 54" fill="none" xmlns="http://www.w3.org/2000/svg">
<path fill-rule="evenodd" clip-rule="evenodd" d="M7.81702 7.88434C11.5398 4.11519 16.5863 2 21.8456 2C27.105 2 32.1515 4.11519 35.8742 7.88434C39.5974 11.6539 41.6913 16.7691 41.6913 22.1054C41.6913 29.9157 36.7089 37.2947 31.5383 42.8206C28.9726 45.5625 26.4037 47.8026 24.4751 49.3574C23.5116 50.1342 22.7099 50.7384 22.1511 51.147C22.0393 51.2288 21.9373 51.3027 21.8456 51.3685C21.754 51.3027 21.6519 51.2288 21.5402 51.147C20.9813 50.7384 20.1796 50.1342 19.2161 49.3574C17.2876 47.8026 14.7186 45.5625 12.153 42.8206C6.98233 37.2947 2 29.9157 2 22.1054C2 16.7691 4.09384 11.6539 7.81702 7.88434ZM21.2855 53.4193C21.2859 53.4196 21.2862 53.4198 21.8456 52.5909L21.2862 53.4198C21.6242 53.648 22.067 53.648 22.4051 53.4198L21.8456 52.5909C22.4051 53.4198 22.4054 53.4196 22.4058 53.4193L22.4069 53.4185L22.4106 53.416L22.4237 53.4071L22.4721 53.374C22.5139 53.3452 22.575 53.303 22.6539 53.2476C22.8117 53.137 23.041 52.974 23.3316 52.7615C23.9127 52.3365 24.7396 51.7132 25.7304 50.9144C27.7104 49.3181 30.3529 47.0147 32.9986 44.1871C38.2508 38.5741 43.6913 30.7103 43.6913 22.1054C43.6913 16.2466 41.3926 10.6254 37.2972 6.4789C33.2013 2.332 27.6435 0 21.8456 0C16.0478 0 10.4899 2.332 6.39407 6.4789C2.29862 10.6254 0 16.2466 0 22.1054C0 30.7103 5.44049 38.5741 10.6926 44.1871C13.3384 47.0147 15.9809 49.3181 17.9609 50.9144C18.9516 51.7132 19.7785 52.3365 20.3597 52.7615C20.6503 52.974 20.8796 53.137 21.0374 53.2476C21.1163 53.303 21.1773 53.3452 21.2192 53.374L21.2675 53.4071L21.2806 53.416L21.2843 53.4185L21.2855 53.4193ZM15.8971 22.1054C15.8971 18.7606 18.572 16.0702 21.8456 16.0702C25.1193 16.0702 27.7942 18.7606 27.7942 22.1054C27.7942 25.4502 25.1193 28.1405 21.8456 28.1405C18.572 28.1405 15.8971 25.4502 15.8971 22.1054ZM21.8456 14.0702C17.4441 14.0702 13.8971 17.6794 13.8971 22.1054C13.8971 26.5313 17.4441 30.1405 21.8456 30.1405C26.2471 30.1405 29.7942 26.5313 29.7942 22.1054C29.7942 17.6794 26.2471 14.0702 21.8456 14.0702Z" fill="black"/>
</svg>
