<svg width="60" height="59" viewBox="0 0 60 59" fill="none" xmlns="http://www.w3.org/2000/svg">
<path d="M53.5714 0H6.42857C4.72361 0 3.08848 0.660362 1.88288 1.83581C0.677294 3.01126 0 4.60552 0 6.26786L0 52.2321C0 53.8945 0.677294 55.4887 1.88288 56.6642C3.08848 57.8396 4.72361 58.5 6.42857 58.5H53.5714C55.2764 58.5 56.9115 57.8396 58.1171 56.6642C59.3227 55.4887 60 53.8945 60 52.2321V6.26786C60 4.60552 59.3227 3.01126 58.1171 1.83581C56.9115 0.660362 55.2764 0 53.5714 0ZM51.3763 40.1365L49.3674 48.6242C49.2654 49.0557 49.0164 49.4408 48.661 49.7166C48.3056 49.9924 47.8649 50.1427 47.4107 50.1429C25.9821 50.1429 8.57143 33.2053 8.57143 12.2746C8.58737 11.8359 8.7473 11.4138 9.02769 11.0703C9.30808 10.7269 9.69412 10.4803 10.129 10.3668L18.8344 8.40807C18.9829 8.37745 19.134 8.3604 19.2857 8.35714C19.6742 8.37626 20.0503 8.49642 20.3751 8.70515C20.6999 8.91387 20.9614 9.20356 21.1326 9.54412L25.1504 18.6847C25.2489 18.9312 25.3036 19.1921 25.3125 19.4565C25.2798 20.0363 25.0154 20.5806 24.5759 20.9725L19.5013 25.0205C22.5761 31.3744 27.8211 36.4883 34.3379 39.4862L38.4897 34.5385C38.8917 34.11 39.4499 33.8522 40.0446 33.8203C40.3158 33.8288 40.5834 33.8822 40.8362 33.9783L50.2112 37.8957C50.5606 38.0624 50.8579 38.3173 51.072 38.634C51.2861 38.9507 51.4092 39.3176 51.4286 39.6964C51.4259 39.8444 51.4084 39.9918 51.3763 40.1365Z" fill="black"/>
</svg>
